# xmcd CD database file
#
# Track frame offsets:
#	150
#	23352
#	38940
#	65090
#	104120
#	118275
#
# Disc length: 1813 seconds
#
# Revision: 1
# Processed by: cddbd v1.5.2PL0 Copyright (c) Steve Scherf et al.
# Submitted via: jetAudio 5
#
DISCID=53071306
DTITLE=Carey Bell and The King Bees LIVE! - Carey Bell and The King Bees LI
DTITLE=VE!
DYEAR=1900
DGENRE=
TTITLE0=Low Down Shame
TTITLE1=Gotta Go
TTITLE2=Shoulda Did What Mama Told Me
TTITLE3=Five Long Years
TTITLE4=Mellow Down Easy
TTITLE5=What Mama Told Me - Part 2
EXTD=
EXTT0=
EXTT1=
EXTT2=
EXTT3=
EXTT4=
EXTT5=
PLAYORDER=
